<?xml version="1.0" encoding="UTF-8"?>
<svg id="Capa_2" data-name="Capa 2" xmlns="http://www.w3.org/2000/svg" viewBox="0 0 344.44 440.59">
  <defs>
    <style>
      .cls-1, .cls-2 {
        fill: #fff;
      }

      .cls-3 {
        fill: #049445;
      }

      .cls-3, .cls-2, .cls-4, .cls-5, .cls-6, .cls-7, .cls-8, .cls-9 {
        fill-rule: evenodd;
      }

      .cls-4 {
        fill: #fad71d;
      }

      .cls-10 {
        fill: #efecec;
      }

      .cls-11, .cls-6 {
        fill: #e30613;
      }

      .cls-5 {
        fill: #a2d7e6;
      }

      .cls-7, .cls-12 {
        fill: #1d1d1b;
      }

      .cls-8 {
        fill: #0ea6dc;
      }

      .cls-9, .cls-13 {
        fill: #ffed00;
      }

      .cls-14 {
        fill: #151116;
      }
    </style>
  </defs>
  <g id="Capa_1-2" data-name="Capa 1">
    <g>
      <path class="cls-5" d="M59.79,174.97l2.64-2.99,2.65-.34,6.33-1.34,6.98-1.01,8.65,1.34h7.64l9.67-.33,7.32,2,4.32-1.66,10-2,10.32-4.34,6.32-5,6.01-4.33,5.3-5.03,6.68-6.98,3.64-3.02,4.02-4.69,2.64,1.02h4.01l4.32-1.33,12,10.35,12.62,10.98,13,9.37,17.64,7.33,16.62,4.68,12.99,1.65,8.99,.68,3.67-1.01,11.65,2.69s11.46-107.42-114.25-121.34c0,0-112.81,1.21-114.39,114.63Z"/>
      <g>
        <path class="cls-1" d="M173.73,120.59c-19.11,0-34.65-13.73-34.65-30.58s15.54-30.59,34.65-30.59,34.66,13.71,34.66,30.59-15.54,30.58-34.66,30.58Zm0-59.44c-18.17,0-32.94,12.95-32.94,28.86s14.77,28.86,32.94,28.86,32.95-12.96,32.95-28.86-14.77-28.86-32.95-28.86Z"/>
        <path class="cls-1" d="M173.54,127.82c-23.76,0-43.09-17.07-43.09-38.02s19.32-37.99,43.09-37.99,43.09,17.03,43.09,37.99-19.32,38.02-43.09,38.02Zm0-74.3c-22.82,0-41.34,16.27-41.34,36.28s18.52,36.29,41.34,36.29,41.37-16.27,41.37-36.29-18.57-36.28-41.37-36.28Z"/>
        <path class="cls-1" d="M173.54,135.07c-28.42,0-51.55-20.31-51.55-45.27,0-12.65,5.78-24.37,16.27-32.98,.11-.08,.22-.15,.34-.16l9.99-2.4,.08-.03,16.92-2.24c.05-.01,.09-.01,.09-.01l27.05,.75c.1,.03,.17,.03,.25,.05l7.57,2.23,8.22,1.92c.15,.03,.26,.09,.35,.19,10.26,8.61,15.91,20.22,15.91,32.68,0,24.96-23.11,45.27-51.51,45.27Zm-34.32-76.78c-10.01,8.24-15.5,19.42-15.5,31.5,0,24.02,22.36,43.57,49.82,43.57s49.79-19.55,49.79-43.57c0-11.89-5.38-22.99-15.11-31.24l-8.07-1.89-7.55-2.23-26.84-.74-16.78,2.23-9.76,2.36Z"/>
        <path class="cls-1" d="M173.54,143.05c-33.12,0-60.04-23.7-60.04-52.86,0-10.15,3.27-19.99,9.46-28.47,.1-.13,.25-.23,.4-.31l9.53-3.41,.05-.03,15.66-3.71,.08-.03,16.92-2.24c.05-.01,.09-.01,.09-.01l27.05,.75c.1,.03,.17,.03,.25,.05l7.57,2.23,18.98,4.45,.13,.04,3.7,1.49c.14,.05,.27,.13,.35,.28,6.4,8.63,9.79,18.63,9.79,28.92,0,29.16-26.9,52.86-59.99,52.86ZM124.21,62.95c-5.87,8.14-8.99,17.54-8.99,27.24,0,28.21,26.16,51.16,58.32,51.16s58.27-22.95,58.27-51.16c0-9.83-3.21-19.41-9.3-27.71l-3.42-1.37-18.94-4.44-7.55-2.23-26.84-.74-16.78,2.23-15.56,3.69-9.21,3.32Z"/>
        <path class="cls-1" d="M173.54,150.85c-37.73,0-68.41-27.03-68.41-60.25,0-8.58,1.96-16.81,5.79-24.51,.11-.2,.29-.38,.5-.42l21.48-7.68,.05-.03,15.66-3.71,.08-.03,16.92-2.24c.05-.01,.09-.01,.09-.01l27.05,.75c.1,.03,.17,.03,.25,.05l7.57,2.23,18.98,4.45,.13,.04,14.75,5.93c.07,.04,.1,.05,.1,.05l1.53,.87c.17,.09,.26,.21,.36,.39,3.67,7.53,5.5,15.56,5.5,23.86,0,33.22-30.67,60.25-68.4,60.25Zm-61.22-83.68c-3.65,7.37-5.5,15.23-5.5,23.43,0,32.28,29.94,58.52,66.73,58.52s66.68-26.24,66.68-58.52c0-7.94-1.74-15.64-5.25-22.88l-1.19-.72-14.68-5.89-18.94-4.44-7.55-2.23-26.84-.74-16.78,2.23-15.56,3.69-21.1,7.55Z"/>
        <path class="cls-1" d="M173.54,158.29c-42.43,0-76.92-30.39-76.92-67.69,0-6.15,.93-12.21,2.77-18.02,.05-.21,.19-.38,.38-.5l10.17-5.84s.08-.04,.13-.05l22.82-8.19,.05-.03,15.66-3.71,.08-.03,16.92-2.24c.05-.01,.09-.01,.09-.01l27.05,.75c.1,.03,.17,.03,.25,.05l7.57,2.23,18.98,4.45,.13,.04,14.75,5.93c.07,.04,.1,.05,.14,.07l13.04,7.64c.19,.11,.34,.29,.38,.5,1.59,5.44,2.38,11.17,2.38,16.97,0,37.3-34.48,67.69-76.84,67.69ZM100.92,73.43c-1.71,5.52-2.57,11.3-2.57,17.17,0,36.36,33.74,65.98,75.19,65.98s75.13-29.63,75.13-65.98c0-5.54-.73-10.98-2.23-16.15l-12.67-7.45-14.68-5.89-18.94-4.44-7.55-2.23-26.84-.74-16.78,2.23-15.56,3.69-22.68,8.14-9.82,5.67Z"/>
        <path class="cls-1" d="M173.54,165.77c-47.05,0-85.33-33.73-85.33-75.17,0-3.75,.26-7.29,.84-10.89,.04-.21,.18-.43,.34-.56l6.96-5.07s.07-.04,.07-.04l13.53-7.8s.08-.04,.13-.05l22.82-8.19,.05-.03,15.66-3.71,.08-.03,16.92-2.24c.05-.01,.09-.01,.09-.01l27.05,.75c.1,.03,.17,.03,.25,.05l7.57,2.23,18.98,4.45,.13,.04,14.75,5.93c.07,.04,.1,.05,.14,.07l13.94,8.19,9.02,5.18c.21,.13,.36,.33,.4,.59,.64,3.73,.93,7.37,.93,11.15,0,41.44-38.26,75.17-85.33,75.17ZM90.72,80.33c-.55,3.36-.78,6.76-.78,10.27,0,40.49,37.48,73.42,83.6,73.42s83.63-32.94,83.63-73.42c0-3.54-.28-6.98-.86-10.47l-8.67-4.97-13.86-8.16-14.68-5.89-18.94-4.44-7.55-2.23-26.84-.74-16.78,2.23-15.56,3.69-22.68,8.14-13.41,7.75-6.61,4.83Z"/>
        <path class="cls-1" d="M173.54,173.2c-51.71,0-93.79-37.05-93.79-82.59,0-1.38,0-2.69,.11-4.04,.01-.25,.15-.5,.33-.63l16.15-11.85s.07-.04,.07-.04l13.53-7.8s.08-.04,.13-.05l22.82-8.19,.05-.03,15.66-3.71,.08-.03,16.92-2.24c.05-.01,.09-.01,.09-.01l27.05,.75c.1,.03,.17,.03,.25,.05l7.57,2.23,18.98,4.45,.13,.04,14.75,5.93c.07,.04,.1,.05,.14,.07l13.94,8.19,14.78,8.55,3.45,2.32c.17,.15,.34,.38,.37,.63,.16,2.02,.23,3.74,.23,5.42,0,45.54-42.08,82.59-93.8,82.59ZM81.56,87.09c-.07,1.14-.07,2.31-.07,3.51,0,44.6,41.31,80.88,92.05,80.88s92.08-36.28,92.08-80.88c0-1.5-.07-3.08-.21-4.88l-3.03-2.06-14.75-8.5-13.86-8.16-14.68-5.89-18.94-4.44-7.55-2.23-26.84-.74-16.78,2.23-15.56,3.69-22.68,8.14-13.41,7.75-15.77,11.58Z"/>
        <path class="cls-1" d="M173.54,180.61c-26.68,0-51.96-8.97-71.1-25.34-19.14-16.3-30.18-38.21-31.09-61.64,0-.3,.11-.52,.32-.68l6.92-5.82,17.77-13.04s.07-.04,.07-.04l13.53-7.8s.08-.04,.13-.05l22.82-8.19,.05-.03,15.66-3.71,.08-.03,16.92-2.24c.05-.01,.09-.01,.09-.01l27.05,.75c.1,.03,.17,.03,.25,.05l7.57,2.23,18.98,4.45,.13,.04,14.75,5.93c.07,.04,.1,.05,.14,.07l13.94,8.19,14.78,8.55,10.95,7.48,.17-.12c.25-.17,.6-.2,.9-.05,.29,.15,.45,.43,.45,.75v.31c0,49.64-45.86,90.01-102.23,90.01ZM73.09,93.97c2.08,47.67,46.09,84.95,100.45,84.95s99.89-39.09,100.51-87.34c-.1-.03-.17-.07-.27-.11l-11.4-7.82-14.75-8.5-13.86-8.16-14.68-5.89-18.94-4.44-7.55-2.23-26.84-.74-16.78,2.23-15.56,3.69-22.68,8.14-13.41,7.75-17.68,12.96-6.56,5.5Z"/>
      </g>
      <g>
        <path class="cls-11" d="M15.14,57.58l-.47,68.53,10,1.34s-6.22,51.39,3.78,78.76l25.28,.43s-12.86-42.27,5.09-80.1c0,0,10.22-28.25,33.07-46.04,0,0,32.19-30.26,76.1-31.58,0,0,61.49-4.24,105.18,49.37,0,0,37.95,48.73,21.1,106.76l-1.57,3.59,25.08-.44s9.31-73.44,3.1-79.67l9.97-1.33-1.09-69.63s-84.1,15.08-157.54-38.5c0,0-85.21,53.18-157.08,38.5Z"/>
        <path class="cls-11" d="M292.71,209.1c-.14,0-.28-.08-.36-.21-.06-.12-.09-.28-.06-.4l1.57-3.58c8.65-29.8,2.47-57.12-4.21-74.8-7.26-19.16-16.7-31.41-16.81-31.54-37.3-45.73-87.22-49.28-101.64-49.28-2.02,0-3.14,.07-3.14,.07-43.29,1.33-75.55,31.2-75.86,31.48-22.53,17.55-32.86,45.59-32.95,45.9-17.29,36.36-5.8,77.33-5.11,79.71,0,0,.06,.12,.06,.21,0,.26-.2,.42-.46,.46h0l-25.31-.46c-.16,0-.31-.09-.38-.28-9.44-25.86-4.4-73.54-3.85-78.54l-9.58-1.27c-.21-.04-.39-.23-.35-.43l.45-68.53c0-.12,.04-.24,.15-.33,.11-.05,.23-.09,.36-.08,8.28,1.69,17.19,2.55,26.47,2.55,63.86,0,129.67-40.59,130.31-41,.15-.08,.33-.08,.47,.01,45.74,33.38,95.41,40.38,129.01,40.38,17.13,0,28.09-1.92,28.23-1.94,.1-.01,.23,.03,.34,.08,.08,.09,.14,.21,.14,.32l1.12,69.64c0,.24-.18,.42-.39,.46l-9.28,1.21c5.34,9.37-3.07,76.45-3.45,79.38-.04,.23-.23,.38-.42,.38l-25.08,.47h0ZM171.2,48.42c14.53,0,64.77,3.57,102.33,49.62,.09,.13,9.63,12.45,16.92,31.76,6.77,17.79,12.97,45.31,4.24,75.42l-1.31,3,24.02-.4c3.22-25.44,7.97-74.16,3.2-78.93-.13-.12-.15-.31-.1-.44,.05-.16,.2-.27,.35-.31l9.6-1.29-1.09-68.76c-2.33,.39-12.7,1.89-27.86,1.89-33.68,0-83.39-7-129.27-40.38-4.5,2.73-68.4,41.01-130.53,41.01-9.15,0-17.93-.84-26.13-2.49l-.45,67.63,9.63,1.3c.23,.01,.37,.21,.35,.46-.05,.52-6.05,51.26,3.66,78.29l24.41,.43c-1.41-5.19-11.42-44.67,5.29-79.85,.09-.23,10.5-28.54,33.2-46.17,.29-.3,32.78-30.39,76.35-31.73,0,0,1.14-.05,3.2-.05Z"/>
      </g>
      <g>
        <path class="cls-7" d="M28.45,206.22l20.87-.32,4.22,12.47,7.56,17.12,6.86,12.03,10.2,13.1,9.77,10.03,9.11,7.15,6.64,4.87s74.78,54.98,155.31-11.13c0,0,32.21-28.26,38.84-62.95l19.93-.35-11.28,41.3-8.21,24.25-9.1,19.79-10.41,20.91-10.9,17.37-12.86,17.76-27.52,32.01-19.75,18.04-16.62,13.57-18.92,13.25-24.61-17.7-18.19-15.34-12.19-12.01-13.54-14.01-16.2-20.04-13.09-18.67-11.77-19.36-10.43-22.03-8.62-18.92-6.23-17.58-8.66-33.35-.25-11.26Z"/>
        <path class="cls-12" d="M172.22,427.32c-.17,0-.34-.04-.49-.16l-24.61-17.67-18.23-15.39-12.25-12.07-13.59-14.05-16.23-20.06-13.12-18.74-11.79-19.39-.05-.08-10.43-22.04-8.63-18.9-6.26-17.64-8.68-33.46-.03-.17-.23-11.27c-.03-.23,.04-.44,.23-.62,.14-.17,.36-.26,.59-.26l20.9-.33c.37,.04,.7,.25,.82,.62l4.22,12.44,7.49,17.01,6.82,11.92,10.15,13.06,9.68,9.93,9.06,7.08,6.64,4.89c.29,.17,29.43,21.25,70.19,21.25,29.59,0,57.89-10.9,84.08-32.38,.3-.26,32-28.42,38.52-62.42,.08-.42,.45-.71,.84-.71l19.92-.36c.28,0,.53,.12,.7,.33,.15,.19,.21,.5,.12,.75l-11.25,41.3-8.22,24.29s-.01,.04-.04,.07l-9.09,19.8-10.47,20.93-10.9,17.44-12.9,17.84-27.54,32.09s-.07,.04-.07,.04l-19.79,18.06-16.64,13.61-18.96,13.26c-.16,.11-.32,.15-.5,.15Zm-108.82-118.37l11.76,19.3,13.02,18.66,16.19,19.96,13.5,13.94,12.19,12.01,18.12,15.3,24.05,17.29,18.39-12.88,16.6-13.53,19.68-17.95,27.48-32.01,12.83-17.74,10.86-17.29,10.38-20.86,9.06-19.71,8.18-24.22,10.98-40.12-18.1,.31c-6.9,34.28-38.65,62.46-38.96,62.78-26.53,21.72-55.18,32.76-85.2,32.76-41.33,0-70.92-21.4-71.21-21.61l-6.65-4.89-9.12-7.15s-.07-.05-.07-.05l-9.79-10.03-.07-.07-10.2-13.12s-.06-.07-.07-.12l-6.88-12s-.01-.08-.04-.08l-7.55-17.13-4.04-11.93-19.4,.3,.24,10.28,8.61,33.27,6.22,17.52,8.61,18.81,10.4,22Z"/>
      </g>
      <polygon class="cls-8" points="63.1 204.58 74.08 250.08 274.1 249.21 288.75 202.01 63.1 204.58"/>
      <g>
        <g>
          <polygon class="cls-3" points="58.78 174.86 63.12 171.84 66.38 171.52 71.08 169.85 73.98 169.19 77.96 168.87 84.47 170.87 88.08 170.87 93.13 170.19 98.92 169.85 104.33 169.85 107.61 170.87 110.13 171.84 113.04 172.19 116.65 171.19 120.27 169.85 127.47 168.2 135.81 164.2 143.05 158.89 151.7 152.55 155.7 147.58 162.91 141.28 165.46 137.6 169.43 134.62 171.97 136.26 176.33 136.6 179.21 134.27 184.26 138.6 188.24 141.95 194.01 148.25 198.02 151.56 205.58 157.22 211.36 161.55 218.96 166.54 252.61 177.85 257.65 178.84 263.8 179.83 267.79 179.83 272.12 179.83 276.82 178.49 282.61 179.83 287.67 181.16 291.31 181.16 290.58 205.79 280.44 205.79 272.51 206.43 263.8 206.77 257.65 204.77 251.53 205.44 240.3 206.11 233.45 204.77 227.63 207.1 220.79 205.12 214.65 205.79 209.94 206.11 205.94 207.79 85.56 207.44 82.3 207.44 79.01 208.11 76.15 206.43 72.18 208.44 66.38 206.77 64.2 211.1 57.7 191.48 58.78 174.86"/>
          <path class="cls-12" d="M64.2,211.51h-.04c-.17,0-.31-.12-.36-.29l-6.52-19.6s0-.12,0-.17l1.07-16.62c0-.13,.08-.25,.17-.35l4.33-2.98c.07-.04,.14-.05,.24-.05l3.17-.33,4.66-1.66,2.92-.67,4.05-.32h.17l6.45,1.98h3.55l5.02-.67,5.8-.32h5.56l3.26,1.02,2.53,.98,2.71,.32,3.55-.98,3.59-1.34,7.24-1.64,8.26-3.98,15.81-11.6,3.94-4.93,7.27-6.33,2.47-3.62s.07-.07,.1-.08l3.96-3c.16-.12,.35-.12,.5-.01l2.44,1.58,4.08,.32,2.75-2.2c.16-.13,.4-.13,.56,0l5.05,4.32,3.95,3.32,5.84,6.34,3.94,3.3,13.36,9.97,7.53,4.93,33.59,11.29,5,.99,6.15,.98h8.16l4.65-1.3s.16-.01,.22-.01l5.77,1.31,5,1.34h3.61c.12,0,.2,.04,.28,.12,.1,.08,.14,.21,.14,.31l-.72,24.61c0,.23-.2,.43-.43,.43h-10.13l-7.91,.64-8.7,.33s-.12,0-.15-.01l-6.08-1.97-6.04,.67-11.23,.67h-.11l-6.74-1.33-5.66,2.28c-.08,.04-.19,.04-.3,.01l-6.79-1.96-6.05,.66-4.63,.34-3.92,1.62s-.11,.04-.18,.04h0l-120.38-.35h-3.24l-3.2,.66c-.1,.03-.2,0-.29-.04l-2.68-1.57-3.77,1.9c-.11,.04-.21,.04-.32,.03l-5.44-1.57-2.03,4.01c-.06,.15-.21,.23-.37,.23Zm-6.09-20.1l6.18,18.55,1.72-3.38c.09-.23,.3-.29,.48-.23l5.63,1.6,3.83-1.92c.13-.07,.27-.04,.4,.01l2.75,1.6,3.1-.66h3.35l120.3,.36,3.89-1.64c.06-.03,.09-.04,.16-.04l4.68-.32,6.13-.7s.14,0,.17,.03l6.72,1.96,5.64-2.28c.09-.01,.19-.04,.27-.01l6.8,1.33,11.15-.66,6.12-.67h.14l6.13,1.98,8.59-.33,7.92-.64h9.77l.68-23.77h-3.27l-5.07-1.35-5.66-1.27-4.61,1.27h-.11s-8.32,.01-8.32,.01l-6.2-.95-5.07-1.05-33.69-11.34s-.06-.01-.06-.01l-7.63-4.99-13.41-10-3.99-3.34-5.82-6.35-3.94-3.28-4.81-4.09-2.59,2.09c-.1,.05-.19,.09-.33,.09l-4.33-.34s-.13-.01-.19-.07l-2.29-1.49-3.67,2.78-2.49,3.59s-.04,.04-.07,.09l-7.23,6.3-3.93,4.95-.09,.05-15.89,11.66-8.41,4.01-.08,.03-7.25,1.68-3.57,1.31-3.63,1.05h-.19l-2.88-.36h-.09s-2.55-1.03-2.55-1.03l-3.17-.97h-5.34l-5.75,.36-5.05,.66h-3.65s-.09,0-.13-.03l-6.43-1.97-3.9,.32-2.81,.66-4.69,1.66s-.04,.03-.08,.03l-3.17,.31-4.04,2.8-1.1,16.34Z"/>
        </g>
        <g>
          <path class="cls-3" d="M60.09,173.98l3.03-2.13,3.26-.32,4.71-1.68,4.67-.55,8.72,1.57,5.93-.23,8.52-.79,6.74,.35,13.98,5.38,10.02,2.69,5.38,3.63,14.32,3.59,18.63-13.94s0-2.69,2.86-2.25c2.88,.46,2.14,2.71,6.82,3.59,4.67,.91,7.86,1.34,13.63,2.68,5.71,1.35,15.04,9.44,25.06,10.35,10.03,.91,11.11,7.19,18.63,6.3,7.52-.88,6.81-1.35,13.27-1.78,6.44-.46,5.74,2.25,15.39,.43,9.68-1.78,22.23-4.04,23.65-4.95"/>
          <path class="cls-12" d="M233.59,192.73c-3.08,0-5.05-1.25-7.29-2.67-2.38-1.53-5.09-3.27-9.96-3.71-6.27-.56-12.35-3.91-17.21-6.62-3.1-1.73-5.79-3.22-7.92-3.73-3.95-.93-6.64-1.41-9.52-1.94-1.3-.21-2.63-.46-4.08-.75-2.73-.52-3.75-1.5-4.57-2.32-.6-.59-1.11-1.09-2.25-1.27-.74-.11-1.34,0-1.72,.35-.62,.54-.65,1.46-.65,1.46,0,.16-.05,.28-.16,.36l-18.62,13.96c-.12,.05-.25,.08-.39,.05l-14.31-3.61-.14-.05-5.3-3.55-9.97-2.68-13.97-5.39-6.65-.33-8.49,.79-5.95,.23h-.09l-8.64-1.56-4.54,.54-4.69,1.66s-.04,.03-.08,.03l-3.14,.31-2.96,2.04c-.19,.15-.45,.08-.6-.08-.11-.21-.07-.48,.13-.63l3-2.11c.07-.04,.14-.05,.24-.05l3.17-.33,4.66-1.66h.07l4.69-.58h.09l8.7,1.56,5.89-.23,8.5-.75,6.78,.32c.07,0,.11,0,.16,.03l13.97,5.4,9.97,2.67s.09,.01,.15,.07l5.32,3.55,14.06,3.53,18.3-13.69c.05-.42,.21-1.3,.91-1.92,.62-.51,1.42-.7,2.43-.54,1.41,.21,2.05,.84,2.72,1.53,.77,.75,1.64,1.61,4.12,2.08,1.46,.28,2.79,.51,4.08,.75,2.9,.52,5.61,1.03,9.55,1.96,2.28,.51,4.99,2.04,8.16,3.78,5.05,2.82,10.77,5.98,16.89,6.53,5.07,.47,7.88,2.28,10.35,3.85,2.43,1.53,4.52,2.88,8.19,2.47,3.32-.42,5-.71,6.47-.99,1.8-.31,3.19-.58,6.77-.83,2.72-.17,4.21,.16,5.68,.52,2,.48,4.05,.99,9.69-.04l3.12-.59c8.53-1.58,19.16-3.55,20.36-4.32,.21-.11,.47-.07,.59,.13,.14,.2,.07,.47-.12,.59-1.27,.79-9.38,2.33-20.67,4.44l-3.15,.56c-5.78,1.1-7.95,.56-10.05,.07-1.41-.33-2.83-.67-5.41-.5-3.53,.24-4.91,.5-6.67,.82-1.41,.27-3.16,.59-6.55,1.01-.51,.05-1.01,.05-1.46,.05Z"/>
        </g>
      </g>
      <g>
        <polygon class="cls-3" points="75.89 247.35 79.88 245.88 85.98 245.75 96.69 247.63 108.55 246.61 121.45 246.14 154.01 249.63 234.75 246.93 252.7 245.55 257.03 244.61 261.65 245.51 265.62 245.09 271.65 248.16 261.65 261.14 238.36 274.28 214.1 284.23 181.35 288.41 147.7 287.01 130.94 282.09 103.99 270.58 83.91 255.76 75.89 247.35"/>
        <path class="cls-14" d="M181.35,288.84h-.01l-33.66-1.38s-.08,0-.11-.03l-16.74-4.92-27.01-11.54s-.04-.04-.09-.05l-20.05-14.8-8.08-8.47c-.11-.09-.15-.23-.11-.38,.01-.16,.13-.25,.25-.3l3.99-1.5,.13-.04,6.09-.09,10.73,1.86,11.81-1.03,12.94-.46,32.6,3.5,80.68-2.69,17.94-1.41,4.29-.94h.17l4.56,.93,3.89-.42c.09,0,.17,0,.25,.04l6.01,3.06c.14,.07,.2,.17,.23,.28,.03,.12,0,.24-.07,.36l-10.02,12.98s-.07,.08-.07,.08l-23.35,13.18-24.3,9.99-.12,.03-32.74,4.17h-.04Zm-33.6-2.25l33.58,1.38,32.62-4.14,24.23-9.96,23.17-13.07,9.65-12.49-5.46-2.75-3.82,.42h-.15l-4.54-.94-4.23,.95-18.03,1.38-80.76,2.72-32.58-3.51-12.86,.47-11.84,1.02h-.11l-10.72-1.85-5.93,.09-3.3,1.22,7.57,7.96,19.96,14.72,26.91,11.52,16.64,4.87Z"/>
      </g>
      <g>
        <path class="cls-6" d="M148.54,89.14c0-12.29,11.31-22.29,25.34-22.29s25.3,10,25.3,22.29-11.31,22.35-25.3,22.35-25.34-10.01-25.34-22.35Z"/>
        <path class="cls-12" d="M173.88,111.92c-14.2,0-25.75-10.22-25.75-22.78s11.56-22.72,25.75-22.72,25.74,10.19,25.74,22.72-11.54,22.78-25.74,22.78Zm0-44.64c-13.71,0-24.9,9.81-24.9,21.86s11.18,21.91,24.9,21.91,24.88-9.83,24.88-21.91-11.15-21.86-24.88-21.86Z"/>
      </g>
      <g>
        <path class="cls-9" d="M203.95,285.71c48.74-13.14,84.58-57.74,84.58-110.75,0-63.3-51.22-114.63-114.35-114.63S59.79,111.66,59.79,174.97c0,52.19,34.73,96.21,82.3,110.13l-51.52,52.06H254.72l-50.76-51.44Zm-88.01,3.93c-41.61-21.28-70.11-64.63-70.11-114.67,0-71.04,57.47-128.63,128.35-128.63s128.28,57.59,128.28,128.63c0,50.89-29.43,94.85-72.14,115.73l46.55,46.88-8.68,11.42H76.11l-8.33-10.55,48.17-48.81Z"/>
        <path class="cls-12" d="M268.2,349.86H76.11c-.28,0-.51-.11-.68-.31l-8.3-10.56c-.3-.35-.26-.82,.06-1.15l47.31-47.94c-42.89-22.44-69.49-66.36-69.49-114.93,0-71.4,57.95-129.47,129.19-129.47s129.16,58.07,129.16,129.47c0,24.76-6.98,48.8-20.18,69.56-12.67,19.91-30.42,35.91-51.42,46.4l45.73,46.05c.3,.31,.34,.78,.05,1.1l-8.65,11.45c-.15,.23-.4,.34-.68,.34Zm-191.69-1.72h191.29l7.94-10.48-46.03-46.36c-.18-.19-.28-.5-.24-.75,.06-.3,.24-.51,.47-.66,44.21-21.57,71.71-65.62,71.71-114.93,0-70.45-57.2-127.77-127.45-127.77S46.7,104.52,46.7,174.97c0,48.32,26.68,91.96,69.62,113.92,.23,.11,.42,.35,.45,.6,.04,.29-.03,.58-.25,.75l-47.58,48.3,7.56,9.6Zm178.21-10.15H90.57c-.36,0-.67-.2-.82-.51-.11-.32-.05-.7,.21-.94l50.5-51.05c-22.88-7.02-43.45-21.41-58.05-40.59-15.36-20.26-23.47-44.4-23.47-69.94,0-63.68,51.71-115.51,115.24-115.51s115.21,51.83,115.21,115.51c0,51.67-34.4,97.18-83.79,111.19l49.74,50.39c.23,.24,.3,.62,.17,.94-.12,.31-.43,.51-.8,.51Zm-162.06-1.7H252.66l-49.31-49.96c-.21-.24-.31-.54-.21-.83,.06-.29,.3-.54,.6-.6,49.42-13.34,83.92-58.54,83.92-109.93,0-62.73-50.92-113.8-113.48-113.8S60.65,112.24,60.65,174.97c0,50.29,33.58,95.24,81.66,109.3,.32,.08,.52,.32,.6,.59,.06,.31-.01,.59-.23,.84l-50.03,50.59Z"/>
      </g>
      <polygon class="cls-12" points="119.28 192.8 119.94 193.44 120.6 192.8 119.28 192.8"/>
      <line class="cls-12" x1="72.62" y1="220.48" x2="73.25" y2="221.14"/>
      <g>
        <path class="cls-9" d="M172.22,426.48c171.58-113.72,148.91-298.63,148.91-298.63l8.87-.98c2-6.94,0-70.21,0-70.21-84.81,14.8-157.79-37.58-157.79-37.58,0,0-72.98,52.38-157.79,37.58,0,0-1.98,63.26,0,70.21l8.85,.98S.62,312.75,172.22,426.48Zm0,12.84C-.37,332.54,11.48,140.7,11.48,140.7l-8.89-.98C-.37,98.19,2.58,38.87,2.58,38.87,80.51,65.56,172.22,1.28,172.22,1.28c0,0,91.74,64.28,169.62,37.59,0,0,2.96,59.32,0,100.85l-8.85,.98s11.81,191.84-160.77,298.62Z"/>
        <path class="cls-12" d="M172.22,440.59c-.22,0-.46-.04-.66-.19-39.55-24.45-72.61-55.41-98.31-92.07-20.59-29.31-36.52-62.26-47.38-98-16.84-55.45-16.05-100.58-15.77-108.48l-7.68-.84c-.62-.09-1.1-.59-1.13-1.22-2.92-41.1-.03-100.38,0-101,0-.4,.24-.76,.55-.99,.35-.24,.78-.28,1.16-.16,12.41,4.28,26.01,6.43,40.48,6.43C108.13,44.07,170.85,.66,171.48,.22c.45-.29,1.05-.29,1.46,0,.66,.44,63.35,43.85,128.03,43.85,14.4,0,28.04-2.16,40.47-6.43,.38-.12,.82-.08,1.14,.16,.34,.23,.56,.59,.56,.99,.03,.62,2.92,59.9,0,101-.07,.63-.52,1.13-1.14,1.22l-7.68,.84c.29,7.9,1.07,53.03-15.77,108.48-10.85,35.74-26.78,68.69-47.37,98-25.67,36.67-58.76,67.62-98.29,92.07-.19,.15-.42,.19-.66,.19ZM3.82,138.56l7.8,.87c.68,.07,1.19,.67,1.14,1.34,0,.48-2.71,48.5,15.62,108.9,16.92,55.58,55.54,133.23,143.85,188.13,88.3-54.9,126.96-132.54,143.83-188.13,18.37-60.39,15.68-108.41,15.64-108.9-.03-.67,.46-1.27,1.15-1.34l7.82-.87c2.49-37,.46-88.02,0-97.93-12.27,4-25.6,6.01-39.67,6.01-61.69,0-121.47-38.88-128.75-43.8-7.3,4.92-67.05,43.8-128.73,43.8-14.1,0-27.44-2.01-39.71-6.01-.42,9.91-2.51,60.93,.03,97.93ZM172.22,427.75c-.26,0-.49-.05-.7-.21-39.28-26.02-71.58-57.99-96.03-94.99-19.56-29.59-34.14-62.47-43.31-97.7-14.21-54.42-11.02-97.9-10.28-105.85l-7.63-.84c-.5-.05-.93-.42-1.07-.94-2-7.02-.14-67.99-.05-70.6,0-.35,.19-.72,.45-.93,.3-.25,.66-.35,1.07-.3,9.95,1.74,20.26,2.61,30.62,2.61h0c69.66,0,125.62-39.57,126.17-39.98,.44-.31,1.06-.31,1.5,0,.58,.4,56.53,39.98,126.19,39.98,10.36,0,20.67-.87,30.64-2.61,.37-.05,.74,.04,1.02,.3,.32,.2,.47,.58,.47,.93,.1,2.6,1.99,63.57-.04,70.6-.15,.52-.56,.88-1.08,.94l-7.61,.84c.76,7.95,3.95,51.44-10.26,105.85-9.22,35.23-23.78,68.12-43.33,97.7-24.41,37-56.74,68.97-96.02,94.99-.21,.16-.47,.21-.72,.21ZM15.49,125.67l7.96,.91c.34,.03,.66,.2,.88,.47,.21,.25,.29,.62,.23,.95-.03,.47-5.44,46.75,10.12,106.31,14.33,54.72,49.8,132.16,137.54,190.59,87.8-58.45,123.29-135.94,137.56-190.71,15.54-59.52,10.13-105.72,10.08-106.19-.04-.33,.05-.7,.28-.95,.23-.27,.51-.44,.87-.47l7.92-.91c1.27-7.72,.5-46.21-.16-67.5-9.64,1.61-19.59,2.43-29.61,2.43-66.12,0-119.99-35.23-126.93-39.96-6.94,4.73-60.84,39.96-126.93,39.96h0c-10.01,0-19.97-.82-29.61-2.43-.65,21.29-1.41,59.78-.18,67.5Z"/>
      </g>
      <path class="cls-2" d="M135.41,372.69h-.06l-1.19,7.96h2.4l-1.15-7.96Zm-6.41,14.56l3.89-17.82h5.01l3.86,17.82h-4.24l-.57-3.47h-3.28l-.5,3.47h-4.19Z"/>
      <polygon class="cls-2" points="144.3 387.25 144.3 369.43 150.18 369.43 152.31 379.96 152.36 379.96 154.58 369.43 160.42 369.43 160.42 387.25 156.43 387.25 156.85 373.28 156.83 373.28 153.88 387.25 150.8 387.25 147.92 373.28 147.86 373.28 148.25 387.25 144.3 387.25"/>
      <path class="cls-2" d="M167.94,384.03c.76-.01,1.31-.01,1.54-.07,.28-.01,.52-.09,.74-.2,.21-.12,.4-.33,.5-.66,.09-.31,.17-.76,.17-1.37,0-.64-.13-1.11-.38-1.43-.2-.28-.5-.44-.84-.52-.37-.05-.98-.12-1.74-.13v4.38Zm0-7.59c.83-.08,1.42-.12,1.7-.16,.31-.05,.54-.21,.71-.5s.27-.75,.27-1.45-.22-1.21-.62-1.39c-.42-.21-1.09-.3-2.06-.3v3.79Zm-4.14,10.81v-17.82h5.38c1.73,0,3.11,.36,4.12,1.07,.98,.67,1.49,1.86,1.49,3.55s-.67,3.04-2.01,3.74v.04c.64,.38,1.11,.76,1.45,1.1,.3,.39,.54,.82,.66,1.29,.1,.5,.19,1.1,.19,1.86,0,3.43-1.8,5.16-5.42,5.16h-5.85Z"/>
      <path class="cls-2" d="M183.68,372.69h-.06l-1.21,7.96h2.44l-1.17-7.96Zm-6.39,14.56l3.89-17.82h5.01l3.86,17.82h-4.22l-.58-3.47h-3.28l-.49,3.47h-4.2Z"/>
      <polygon class="cls-2" points="191.94 369.43 202.71 369.43 202.71 373 199.38 373 199.38 387.25 195.19 387.25 195.19 373 191.94 373 191.94 369.43"/>
      <path class="cls-2" d="M212.5,374.64c0-.76-.08-1.31-.28-1.77-.16-.43-.55-.66-1.19-.66-.59,0-.98,.23-1.19,.7-.18,.46-.29,.99-.29,1.73v7.29c0,1.66,.5,2.56,1.51,2.56,.96,0,1.43-.9,1.43-2.56v-7.29Zm4.18,6.93c0,1.37-.18,2.51-.54,3.39-.36,.92-.96,1.58-1.78,2.05-.8,.46-1.93,.66-3.29,.66s-2.49-.2-3.31-.66c-.86-.47-1.47-1.13-1.84-2.05-.34-.88-.52-2.02-.52-3.39v-7.23c0-1.14,.19-2.09,.66-2.88,.41-.8,1.07-1.41,1.93-1.82,.84-.42,1.86-.62,3.08-.62,1.82,0,3.21,.44,4.16,1.38,.99,.88,1.46,2.21,1.46,3.94v7.23Z"/>
      <g>
        <g>
          <path class="cls-4" d="M168.25,107.99s3.91,21.26,4.63,23.38c.68,2.16,3.33,2.96,4.16,0,.83-2.98,3.34-22.91,3.34-22.91l-12.13-.47Z"/>
          <path class="cls-12" d="M175.13,133.73h0c-1.17,0-2.25-.88-2.69-2.2-.68-2.14-4.44-22.59-4.59-23.45-.03-.13,0-.24,.08-.36,.09-.09,.21-.13,.35-.16l12.13,.48c.13,0,.23,.04,.31,.15,.11,.08,.11,.21,.11,.31-.11,.83-2.52,20.01-3.38,23-.56,2.02-1.82,2.23-2.31,2.23Zm-6.36-25.28c.6,3.3,3.89,20.93,4.5,22.8,.31,.94,1.07,1.65,1.86,1.65,.68,0,1.21-.58,1.49-1.62,.76-2.69,2.92-19.4,3.28-22.4l-11.14-.43Z"/>
        </g>
        <g>
          <path class="cls-13" d="M162.22,92.84c-1.78-.54-3.53-4.61-1.6-7.7,1.97-3.08-.7-4.53,.54-4.53s2.86,2.53,2.86,2.53c0,0-1.63-1.09,3.38-5.07,5.03-3.98,5.36-9.05,5.36-9.05,0,0,4.65,4.32,3.21,7.96,0,0,4.98-3.24,5.18-5.64,0,0,3.58,3.82,1.07,8.55-2.47,4.72-1.44,3.97-1.44,4.52l-.04,.12c-.11,0-.2-1.57,4.16-5.36,1.26-1.1,.72-2.18,.72-2.18,0,0,7.31,8.96,.35,15.85h-23.75Z"/>
          <path class="cls-12" d="M185.97,93.26h-23.86c-.94-.3-1.82-1.31-2.35-2.71-.7-1.92-.52-4.02,.5-5.63,1.1-1.7,.59-2.84,.33-3.49-.15-.36-.29-.66-.11-.95,.18-.28,.54-.28,.68-.28,.8,0,1.64,.72,2.35,1.54,.4-1.06,1.62-2.41,3.61-4,4.81-3.82,5.21-8.69,5.21-8.69,0-.23,.11-.36,.27-.44,.16-.05,.34-.01,.46,.09,.17,.17,3.96,3.74,3.59,7.28,1.59-1.15,3.97-3.19,4.06-4.64,.03-.17,.13-.32,.29-.36,.17-.07,.34-.03,.47,.09,.04,.04,3.74,4.09,1.12,9.01-.3,.59-.55,1.09-.76,1.51,.62-.75,1.53-1.69,2.8-2.78,.97-.86,.62-1.66,.62-1.66-.1-.17-.05-.4,.13-.54,.19-.11,.43-.09,.56,.09,.09,.09,7.49,9.34,.33,16.44-.09,.09-.19,.09-.3,.09Zm-23.68-.84h23.5c5.07-5.16,1.84-11.6,.25-14.09-.15,.38-.42,.78-.84,1.18-3.18,2.73-3.85,4.24-3.99,4.69,.03,.08,.03,.13,.03,.23,0,.58-.59,.64-.82,.38-.08-.12-.11-.24-.11-.44-.31-.51-.25-1.25,1.53-4.67,1.78-3.34,.36-6.15-.49-7.39-.98,2.29-4.68,4.76-5.13,5.05-.15,.11-.36,.09-.51-.03-.13-.12-.2-.31-.13-.48,1.02-2.57-1.35-5.6-2.5-6.88-.34,1.66-1.51,5.35-5.4,8.43-3.45,2.78-3.51,3.97-3.45,4.26,.1,.17,.18,.27,.18,.27,.11,.16,.07,.38-.08,.54-.14,.15-.36,.15-.52,.04-.07-.04-.24-.19-.34-.46-.78-1.07-1.57-1.81-2.1-1.98h0c.31,.71,.97,2.21-.37,4.29-.88,1.41-1.01,3.22-.4,4.88,.4,1.09,1.07,1.96,1.7,2.17Z"/>
        </g>
        <path class="cls-11" d="M168.66,92.39s-4.63-3.65,.37-8.7c2.44-2.41,1.6-4.14,1.6-4.14,0,0,3.74,3.07,2.85,5.6,0,0,2.67-2,3.73-4.71,0,0,.91,3.98,0,6.14-1.37,3.47,1.64,5.62,2.17,5.8,.54,.17-10.72,0-10.72,0Z"/>
        <g>
          <path class="cls-13" d="M184.19,97.83s-.9,6.5-9.98,5.79c-9.12,.71-10-5.79-10-5.79"/>
          <path class="cls-12" d="M172.78,104.12c-8.07,0-8.98-6.17-9.01-6.23-.04-.23,.13-.44,.38-.48,.22-.03,.44,.13,.48,.36,.03,.27,.95,6.11,9.53,5.46,8.66,.67,9.59-5.39,9.59-5.39,.05-.29,.26-.46,.49-.43,.25,.04,.4,.25,.4,.48-.03,.07-1.07,6.93-10.48,6.17-.48,.05-.95,.07-1.37,.07Z"/>
        </g>
        <g>
          <path class="cls-13" d="M179.5,108.3c1.41,0,2.51-.97,2.51-2.18s-1.09-2.17-2.51-2.17h-10.44c-1.36,0-2.51,.98-2.51,2.17s1.15,2.18,2.51,2.18h10.44Z"/>
          <path class="cls-12" d="M179.5,108.74h-10.44c-1.6,0-2.93-1.18-2.93-2.63s1.33-2.59,2.93-2.59h10.44c1.6,0,2.94,1.15,2.94,2.59s-1.34,2.63-2.94,2.63Zm-10.44-4.37c-1.13,0-2.07,.78-2.07,1.74s.94,1.77,2.07,1.77h10.44c1.13,0,2.08-.8,2.08-1.77s-.95-1.74-2.08-1.74h-10.44Z"/>
        </g>
        <g>
          <path class="cls-13" d="M184.99,97.63c1.45,0,2.58-1.14,2.58-2.6s-1.13-2.64-2.58-2.64h-21.96c-1.42,0-2.59,1.19-2.59,2.64s1.17,2.6,2.59,2.6h21.96Z"/>
          <path class="cls-12" d="M184.99,98.08h-21.96c-1.68,0-3-1.37-3-3.06s1.33-3.07,3-3.07h21.96c1.68,0,3.02,1.37,3.02,3.07s-1.35,3.06-3.02,3.06Zm-21.96-5.27c-1.19,0-2.19,.98-2.19,2.21s.99,2.17,2.19,2.17h21.96c1.17,0,2.13-.98,2.13-2.17s-.96-2.21-2.13-2.21h-21.96Z"/>
        </g>
      </g>
      <g>
        <polygon class="cls-10" points="154.94 147.44 158.19 144.62 161.1 142.18 162.47 141.01 164.47 137.82 165.14 136.89 167.11 135.61 169.32 133.7 170.7 134.55 171.73 135.35 173.13 135.84 176.26 135.84 178.58 133.97 179.48 133.37 180.76 134.32 182.03 135.49 184.59 137.24 186.67 139.82 188.52 141.1 190.12 142.63 192 145.1 193.37 146.51 195.25 148.36 189.1 147.44 183.29 145.1 178.58 147.67 175.19 144.62 168.98 148.73 166.99 145.21 162.37 147.54 161.2 145.8 154.94 147.44"/>
        <path class="cls-10" d="M168.98,149.15h-.11c-.13-.04-.21-.11-.28-.2l-1.78-3.18-4.26,2.16c-.18,.11-.43,.05-.54-.15l-.99-1.5-5.96,1.57c-.18,.05-.38-.04-.5-.23-.09-.16-.03-.38,.12-.5l7.46-6.42,1.95-3.1,.71-.98s.07-.05,.11-.11l1.96-1.27,2.16-1.86c.12-.11,.33-.11,.49-.03l1.39,.79,1.05,.83,1.23,.42h2.92l2.19-1.77,.95-.63c.15-.08,.34-.05,.5,.03l1.28,.95,1.31,1.22,2.51,1.7s.05,.05,.07,.08l2.04,2.52,1.81,1.25,1.65,1.58,1.92,2.52,3.2,3.22c.13,.12,.16,.35,.07,.51-.1,.16-.25,.25-.44,.21l-6.13-.93s-.09-.01-.09-.01l-5.6-2.27-4.59,2.45c-.16,.08-.35,.08-.47-.04l-3.1-2.83-5.98,3.91c-.09,.04-.15,.07-.23,.07Zm-2-4.38c.13,0,.29,.08,.39,.23l1.74,3.12,5.85-3.86c.17-.11,.4-.09,.54,.04l3.13,2.88,4.48-2.47c.1-.05,.23-.05,.36-.01l5.75,2.31,4.79,.76-2.32-2.36-1.9-2.53-1.56-1.45-1.78-1.25s-.08-.07-.08-.07l-2.09-2.55-2.47-1.73-1.33-1.22-.98-.72-.68,.43-2.29,1.84c-.05,.07-.15,.11-.26,.11h-3.12l-.14-.03-1.38-.47c-.05-.03-.09-.04-.09-.04l-1.09-.84-1.07-.64-1.97,1.68-1.94,1.29-.64,.88-1.96,3.12s-.05,.07-.1,.11l-6.12,5.23,4.48-1.19c.17-.04,.37,.05,.46,.2l.96,1.43,4.27-2.14c.08-.05,.13-.08,.2-.08Z"/>
      </g>
      <g>
        <g>
          <line class="cls-13" x1="97.88" y1="339.24" x2="146.92" y2="287.64"/>
          <path class="cls-13" d="M97.88,339.7c-.11,0-.2-.07-.3-.13-.17-.16-.17-.44-.02-.6l49.05-51.63c.17-.17,.44-.19,.6-.01,.17,.17,.2,.46,.03,.63l-49.05,51.59c-.07,.09-.19,.16-.31,.16Z"/>
        </g>
        <g>
          <line class="cls-13" x1="105.66" y1="341.48" x2="157.17" y2="287.78"/>
          <path class="cls-13" d="M105.66,341.88c-.11,0-.21-.03-.3-.11-.17-.16-.17-.43,0-.62l51.49-53.7c.17-.16,.46-.16,.62,0,.17,.16,.17,.44,0,.62l-51.49,53.7c-.09,.08-.21,.11-.32,.11Z"/>
        </g>
        <g>
          <line class="cls-13" x1="116.96" y1="339.93" x2="166.02" y2="288.3"/>
          <path class="cls-13" d="M116.96,340.36c-.1,0-.21-.05-.28-.13-.17-.17-.2-.4-.02-.59l49.03-51.63c.16-.17,.43-.17,.6-.04,.15,.19,.18,.48,.03,.63l-49.04,51.63s-.21,.13-.32,.13Z"/>
        </g>
      </g>
      <g>
        <line class="cls-13" x1="248.13" y1="340.26" x2="197.31" y2="286.52"/>
        <path class="cls-13" d="M248.13,340.7c-.12,0-.21-.05-.31-.13l-50.83-53.74c-.17-.16-.15-.46,.02-.62,.17-.16,.43-.16,.62,.01l50.82,53.74c.17,.2,.15,.44-.03,.62-.06,.07-.17,.12-.3,.12Z"/>
      </g>
      <g>
        <line class="cls-13" x1="238.55" y1="340.36" x2="187.04" y2="287.32"/>
        <path class="cls-13" d="M238.55,340.79c-.09,0-.19-.04-.29-.13l-51.51-53.03c-.19-.16-.19-.42,0-.6,.16-.16,.44-.13,.63,0l51.49,53.03c.19,.17,.19,.46,0,.6-.07,.09-.18,.13-.32,.13Z"/>
      </g>
      <g>
        <line class="cls-13" x1="227.25" y1="338.79" x2="178.22" y2="288.3"/>
        <path class="cls-13" d="M227.25,339.23c-.09,0-.21-.04-.3-.15l-49.06-50.49c-.14-.15-.14-.44,.03-.63,.17-.13,.44-.13,.59,.04l49.04,50.49c.18,.17,.18,.46,0,.59-.08,.11-.2,.15-.31,.15Z"/>
      </g>
      <g>
        <path class="cls-1" d="M125.15,319.2c-.76-.24-.76,0-1.56-.7-.79,0-1.58,.7-1.58,.7-1.61,0-2.41-2.08-2.41-2.78,.8-2.11,1.62-3.54,2.41-5.59,.79-1.39,3.14-1.39,4.73-1.39,5.53-1.41,8.73,4.88,5.53,9.06-1.55,1.38-4.74,1.38-7.12,.7Z"/>
        <path class="cls-1" d="M124.81,331.98c-2.39,0-4.79,.67-5.59-1.39-.74-2.12,1.62-3.53,2.39-4.88,0,.71,.82,.71,1.62,.71l1.59-1.41c.75,0,1.56,0,1.56,.7,2.39-2.8,7.92-2.09,7.92,.71,0,1.35-2.38,0-4.73,.64-2.41,1.41-1.58,4.92-4.75,4.92Z"/>
        <path class="cls-1" d="M106.55,318.5c-1.72-1.58-3.93-2.78-3.93-4.89,.78-2.78,3.93-4.17,6.33-4.17,3.2-.68,7.12,.7,7.9,4.17,.8,3.47-1.58,6.27-4.71,7.68-2.41,.7-4.02-1.41-5.6-2.79Z"/>
        <path class="cls-1" d="M117.07,322.16c3.3,0,7.94-2.1,6.33,.7-1.53,2.76-5.54,9.02-11.07,6.27-3.12-1.39,1.58-6.97,4.74-6.97Z"/>
        <path class="cls-1" d="M139.89,311.02c3.27,0,7.92-2.12,6.31,.67-1.53,2.79-5.54,9.05-11.05,6.29-3.17-1.39,1.59-6.96,4.74-6.96Z"/>
        <path class="cls-1" d="M156.36,302.46c3.28,0,7.92-2.1,6.31,.71-1.51,2.78-5.52,9.06-11.06,6.27-3.12-1.41,1.62-6.98,4.75-6.98Z"/>
        <path class="cls-1" d="M172.35,293.9c.79-2.79-4.72-2.08-6.33-1.42-1.58,.7-4.73,0-5.52,2.09-.82,2.8-3.97,3.47-3.97,6.27,0,.7,1.64,.46,2.35,.7,6.33,2.06,12.67-2.8,13.46-7.64Z"/>
        <path class="cls-1" d="M142.46,303.13c2.3-3.98,5.6-8.34,10.32-8.34,1.59,0,.79,2.06,.79,2.78-1.58,2.79-4.77,4.87-4.77,7.68,0,2.04,3.19,4.16,3.98,6.9,0,1.45-2.38,.74-3.98,1.45-1.56-4.89-7.86-4.89-12.66-4.89-2.33,0-3.17-2.11-3.17-4.2,0-.68,1.6-2.08,2.42-2.08,2.33,.7,6.31,2.08,7.07,.7Z"/>
      </g>
      <g>
        <g>
          <g>
            <g>
              <path class="cls-12" d="M110.3,189.39c1.33,.64,4.07,.64,4.73,.64,4.61-.64,9.2-3.94,13.79-3.94,6.59,.63,13.15,0,19.09-1.34,4.67-1.05,7.36-10.54,13.29-9.87,1.96,0,2.63,1.58,4.19,2.71,.8,.54,2.8,5.27,2.8,5.27,.32,3.38,2.47,5.94,2.47,5.94,1.49,2.29,.71,3.5,.71,3.5,3.07-.46,10.51-3.79,10.51-3.79,0,0,.86,.88,2.61-3.97,1.74-4.83,12.29-13.16,12.29-13.16,14.46-8.82,16.87-21.56,16.87-21.56,1.96-5.92,2.6-11.84,3.27-17.79,.66-3.3,1.31-5.94,1.31-9.22,.68-4.61,2.63-9.24,4.6-13.83,.68-1.34,0-4.64,2.65-5.28,1.29,0,1.29,1.94,0,2.61,1.29,0,.66,2,2.63,1.33,6.56-2.63,6.56-12.52,13.14-15.15,0,0,.67,.67,1.33,.67-.66,1.96-.66,5.93,.65,5.25,3.69-1.88,8.54-6.02,8.07-10.31,0,0,8.37-13.62,13.18-9.91,0,0,1.98,2.63-1.1,7.68,0,0-4.81,11.65,.44,10.99,0,0,6.36-.42,13.81-6.37,0,0,10.95-5.28,7.43,3.51,0,0,.88,5.72-6.32,12.09,0,0-7.27,13.61,7.21,6.8,0,0,8.79-4.16,8.98,0,0,0,2.87,3.54-6.12,9.22,0,0-7.05,7.27,6.12,8.79,0,0,9.01,1.35,5.27,5.5,0,0-6.14,3.74-12.92,3.97h-2.79c-.33-.28-.72-.44-1.17-.44-2.61,0-5.27-.66-7.89,.66-7.9,5.28-8.55,14.51-13.13,22.4-.34,.59,0,1.34-.66,1.97,0,0-.66,2.49-1.56,2.71-.91,.23-3.41,4.24-4.38,5.23-.64,.67-.64,1.31-.64,1.98,.64,5.94-2.65,11.21-5.94,16.46-4.04,6.54-10.51,7.9-17.09,9.24-5.91,.66-12.48-1.97-18.39-3.95-1.98-.67-4.6,0-5.93,1.31-1.3,2-3.93,3.97-2.64,6.61-1.29,0,0,1.96-1.29,1.96,1.96,3.97,5.89,2,8.54,3.3,2.63,2,4.59,4.61,7.23,7.25,1.31,1.34,3.27,1.34,4.61,1.34,3.3-.68,5.89-.68,9.2-1.34,1.29-.66,.92-2.25,1.94-3.31,.35-.32,2.21-1.62,4.09-.64,6.49,3.45,17.52,5.6,18.29,12.53,0,0-.15,1.33-1.01,1.56,0,0-.6,1.7-1.4,1.84-.47,.07-1.01,.95-1.92,.9-.51-.01,.28,1.61-.27,2.31,.58-.72,.11,3.07-.67,2.29,1.06,1.07,3.03,.47,4.6,4.29,.98,2.29,1.31,7.27-1.31,6.57-3.29-1.3-7.89-1.96-11.16-3.26-1.96-.67-3.95,.64-5.93,.64-2.59,0-4.62-1.98-7.24-1.31,2.62,7.92-2.61,17.15-10.51,17.15-3.95,0-8.53-2.65-13.14-1.33-3.3,.64,0,3.94,.66,6.6,0,.64,0,1.3-.66,2,3.3,3.27,1.96,9.87,5.93,11.18,0,0,1.1,6.15,7.01,9.88,0,0-1.74,3.3,4.39,5.08,0,0,11.6,.21,11.82,5.67,0,0,0,1.57-.85,2.23,0,0,0-2.41-2.23-2.41,0,0-3.95,1.33-4.81,1.33,0,0,5.01,1.72,3.52,5.01,0,0-.91,2-3.52,2l.21-1.09s-6.15-3.3-8.77-3.3c0,0-4.6,.64-5.05,2.17,0,0-1.29,1.77,0,3.31,0,0-6.57-1.31-6.14-4.18,0,0-5.25-1.96-7.86,2.21,0,0-.9,2.4,.64,5.05,0,0-10.08,.46-8.1-6.18l1.33-4.17s-13.16-.64-17.33-10.99l-3.52-.64-26.28,27.25s-10.08,.44-8.34-3.97l-.19-8.35s-4.41,8.59-9.47,4.4l1.55-5.91-12.94,9.21,2.22-9.87s-3.3-2.44-5.27-1.97c-1.99,.43-9,12.07-12.07,7.01,0,0-3.93,2.63,6.37-16.92,0,0,7.67-11.66,9.42-17.58l1.56-3.51c.62-4.61,5.9-8.58,3.26-11.22-3.26-3.95-10.52-6.58-10.52-12.52,0-4.6-5.56-7.71-3.71-14.04,1.06-3.74-2.21-3.75-2.85-5.08,0,.67-.66,1.33-1.31,.67-1.33-1.34-2.64-2-3.95-3.3-.66,1.3-1.97,.66-2.63,.66-4.61,.64-8.55-.66-13.14-1.97-1.97,0-2.5,2.4-3.94,2.61-4.16,.66-7.12-1.09-9.1-3.74-2.41-4.81,.54-10.09,2.52-14.05,1.97-4.61,5.28-8.58,9.87-11.21,1.96-.66,3.95-1.33,5.91-2.63,5.95-1.98,12.38-2.21,18.96-2.63Z"/>
              <path class="cls-1" d="M215.61,286.93c-1.62-2.47-5.25-5.94-5.25-3.3-.66,3.97,5.25,7.25,5.25,10.55,0,2.67-4.58,5.28-4.58,8.57,0,1.3,1.95,.67,2.63,.67,.64-.67,1.31-.67,1.31-1.97,1.96,0,2.62-1.33,3.95-1.33,1.29-.66,1.95-.66,3.28,0,1.97,0,4.57,1.33,5.9,3.3,0-1.33,1.96,0,1.96-1.33-.65-1.97-2.59-3.27-4.59-3.27,1.29-1.33,3.29-.7,4.59-1.33,1.31-.64,0-3.97-1.29-3.31-2.63,0-4.6-1.33-7.26-1.33-2.59,.67-4.59-3.94-5.91-5.93Z"/>
              <path class="cls-1" d="M225.48,315.29c.65-.21,.66,0,1.29-.64,.7,0,1.33,.64,1.33,.64,1.31,0,1.96-1.97,1.96-2.64-.65-1.98-1.29-3.3-1.96-5.28-.64-1.31-2.63-1.31-3.93-1.31-4.61-1.3-7.25,4.61-4.61,8.59,1.31,1.3,3.95,1.3,5.92,.64Z"/>
              <path class="cls-1" d="M210.36,313.32c1.98,0,3.94,.63,4.61-1.33,.64-1.97-1.31-3.31-1.99-4.62,0,.67-.64,.67-1.31,.67l-1.31-1.33c-.66,0-1.31,0-1.31,.66-1.98-2.61-6.59-1.97-6.59,.67,0,1.31,1.96,0,3.97,.64,1.96,1.34,1.3,4.64,3.93,4.64Z"/>
              <path class="cls-1" d="M234.24,326.94c1.46-1.49,3.28-2.64,3.28-4.61-.64-2.67-3.28-3.97-5.23-3.97-2.63-.66-5.94,.67-6.6,3.97-.64,3.28,1.32,5.91,3.97,7.24,1.93,.66,3.26-1.33,4.58-2.63Z"/>
              <path class="cls-1" d="M212.54,317.04c-2.7,0-6.57-1.97-5.24,.66,1.31,2.63,4.58,8.58,9.2,5.93,2.61-1.3-1.31-6.58-3.95-6.58Z"/>
              <path class="cls-1" d="M167.63,184.11c-1.27-3.78-5.8-9.61-8.55-7.91-4.28,2.63-8.07,8.07-12,12.01-4.62,5.95-6.41,11.73-8.37,18.3-1.34,5.3-3.81,11.21-5.12,17.13-.66,2,.51,2.65,1.18,3.98l.64-.68,.66,.68c1.97-1.33,1.97-3.98,1.97-5.94,.67-1.98,1.31-3.97,1.31-5.95,0-.64,1.31-1.98,1.94-2.63,0-1.3,.67-3.3,0-4.6,0-.66,1.34-.66,1.34-.66,0,3.95-1.14,8.39,.18,12.35,3.75,3.78,4.42-15,7.04-22.25,0,2-1.15,7.91,.82,8.57,3.29,0,1.8-8.57,3.78-9.88,1.32,4.61-1.31,8.57-.66,13.18,0,.67,.66,1.33,1.32,.67,3.95-5.92,5.26-11.86,7.24-18.46,.64,2.63-1.32,5.25-.68,7.92,.68,1.97,1.31-.7,1.98,0,1.31-3.98,3.96-4.62,6.55-7.25,.69-.67-1.31-2,0-2.65-1.94-1.98-1.94-3.94-2.59-5.93Z"/>
              <path class="cls-1" d="M144.61,236.17c-4.6,5.3-8.53,11.22-11.19,17.83,0,.66,.68,2.61,1.35,2.61,5.9-3.95,6.53-11.22,11.8-15.82,.67,1.34,2.63,1.98,2,3.95-.66,1.97-2.66,.64-3.97,.64-1.31,.7-.66,2.67-1.31,3.3,0,4.64-1.33,8.59,0,13.19,0,2-.66,5.27,1.97,4.62,4.6-1.98,3.93-9.22,5.24-13.85,2.65-8.57,5.96-17.13,8.58-26.36,.66-2.65,0-7.27-1.98-6.6-5.94,3.3-7.91,11.19-12.5,16.46Z"/>
              <path class="cls-1" d="M218.24,228.93c1.33-2.63,3.28-5.92,1.98-7.24-3.29-4.62-6.56-10.55-13.14-10.55-2.65,5.93-5.25,11.86-7.23,18.46,0,1.3-.66,3.3,0,4.6,.65,1.33,1.98,1.97,1.98,3.31-.66,3.29,1.31,5.93,1.31,9.21s-2.64,5.28-4.62,7.94c0,.66,0,1.96,.67,1.96,1.98,0,3.28-2.61,5.25-3.28,2,0,3.97,.67,5.27,0,8.55-4.64,4.6-16.49,8.55-24.4Z"/>
              <path class="cls-1" d="M230.07,243.43c-2.77-6.52,.66-13.83-1.29-20.43-.66-2.63-3.95-.66-4.6,1.3,0,.67,.64,.67,1.31,1.34-1.96-.67-3.28,1.98-3.28,2.63-4.62,7.9-3.28,17.82-8.55,25.06,2.6,3.28,8.55,4.6,11.83,1.98,3.29-3.31,6.56-7.25,4.59-11.88Z"/>
              <path class="cls-1" d="M235.32,240.13c.31,.9,2,1.33,3.3,.66,5.93-3.95,11.79,1.27,16.99,3.06,.54,.2,1.96-1.35,.78-3.71-1.58-3.14-3.97-5.28-7.26-5.28,3.29-1.96,2.33-5.15,.34-7.13-3.94-2.65-8.32-5.07-12.27-7.7-.65,0-1.88-.32-2.53,.35-.67,.66-2.63,3.27-.67,4.6-4.58,2.65-2.62,8.57-2.62,12.53,0,1.31,3.29,.66,3.93,2.63Z"/>
              <path class="cls-11" d="M249.13,219.03c-3.87-1.45-7.88-3.94-11.82-3.94-.66,0-1.29,1.31-2,1.97,6.61,3.31,11.74,8.15,17.78,11.21,1.85,.95,2.8-2.04,2.4-3.3-.87-2.95-3.71-4.95-6.36-5.94Z"/>
              <path class="cls-1" d="M109.66,190.91c-6.82-.21-9.76,1.98-14.37,3.97-3.95,1.33-7.21,1.09-10.51,4.37-2.63,2.67-5.93,5.31-6.57,7.94-.67,1.97-2.64,3.3-2.64,5.92,.64,1.98,.64,3.3,1.97,4.61,1.98,.68,3.31-1.31,4.61-1.98,1.33-1.31,3.28,0,4.6-.64,1.32-.67,1.96-2.65,3.26-3.28h1.98c.64,2.61,1.98,5.25,5.28,4.6-1.35,1.31,0,2,.64,2.63,3.28,.67,4.59-3.3,6.57-5.93,.67,1.98,.67,5.3,2.63,5.3,2.61,.63,5.91,0,8.55,0,.66,0,1.31,2.63,2.63,1.97,1.95-1.97,3.93-3.97,6.56-5.95-1.96,3.3-3.93,5.95-7.23,8.58-1.3,1.3-2.63,2.64-1.96,4.62,1.96,4.61,5.89,.64,8.53-1.33,.66,1.97-1.3,3.94-.66,5.24,1.98,1.35,2.63,2,1.98,3.98-.66,3.3-1.98,6.61-3.3,9.22-.67,1.97,.67,3.94,3.3,3.94,1.31,0,2.62-1.3,2.62-2.6,0-3.31,.65-6.6,1.96-9.92,0-1.31,1.32-4.62,2.65-4.62,1.33-.64,3.3-1.3,3.3-2.61s-3.3,.32-3.95,.32c-1.29-3.94,.21-10.22,1.98-13.51,2.8-5.26,3.71-11.05,5.02-16.3,.66-4.6,4.82-6.11,5.48-10.71,.66-2-.66-1.33-.66-2.63-1.97,1.3-4.96,.3-6.22,1.02-.58-.13-1.49-.13-2.5-.43-.66,.68-1.84,.19-2.33,.75-2.61-.56-2.77-.04-4.08,.62-3.93,.67-7.24,1.98-11.17,3.3-1.96,1.34-3.29,2.64-5.24,3.3,0-1.96-.13-3.08-2.75-3.74Z"/>
              <g>
                <path class="cls-12" d="M167.12,178.68s10.67-7.61,14.14-11.73c0,0,3.3-2.47,5.58,.99,0,0,4.6,6.94,5.42,7.43,0,0-7.4,6.92-7.4,8.58,0,0-1.13,4.26-3.95,4.95l-9.36,3.12s-.97-3.63-2.13-5.3c0,0-1.8-3.3-1.64-4.44,0,0-.66-2.31-1.49-2.98l.82-.63Z"/>
                <path class="cls-12" d="M171.56,192.44l-.19-.05c-.11-.04-.17-.16-.21-.25,0,0-.98-3.55-2.08-5.15-.32-.59-1.82-3.38-1.73-4.67-.25-.83-.8-2.24-1.31-2.65-.11-.09-.18-.21-.18-.35,0-.12,.07-.23,.18-.33l.83-.63c.13-.09,10.68-7.63,14.08-11.68,0-.03,.04-.03,.06-.05,0,0,1.27-.94,2.78-.94,.95,0,2.29,.33,3.41,2.04,2.23,3.35,4.81,6.97,5.31,7.29,.09,.07,.17,.19,.17,.31,.03,.15-.01,.28-.12,.36-3.53,3.34-7.25,7.36-7.25,8.27,0,0,0,.07-.03,.11-.04,.19-1.24,4.52-4.26,5.24l-9.32,3.12s-.09,.01-.15,.01Zm-4.61-13.06c.7,.91,1.19,2.57,1.24,2.79,.05,.07,.05,.12,0,.2-.09,.71,.95,2.92,1.62,4.17,.94,1.33,1.76,3.9,2.08,4.92l8.9-2.99c2.43-.56,3.55-4.18,3.67-4.59,.14-1.72,5.45-6.84,7.23-8.51-1.33-1.42-4.5-6.14-5.19-7.19-.72-1.07-1.63-1.65-2.69-1.65-1.12,0-2.04,.62-2.21,.72-3.51,4.14-13.76,11.45-14.19,11.76l-.44,.36Z"/>
              </g>
              <path class="cls-1" d="M189.32,176.2c2.09-2.1-1.31-6.6-3.28-7.94-1.3-1.31-3.12-2.94-4.42-.32l-.19,1.01c-1.34,1.31-3.28,1.98-4.59,3.28-1.99,2.65-4.62,4.62-7.25,6.6-.67,1.33,0,3.97,1.97,3.97,1.32-.67,1.32-2.64,1.98-3.32,1.31-.64,1.96,1.35,1.96,2.65,.67,.67,2,2.63,3.3,1.98,1.28-1.31,1.28-3.28,1.28-5.28,2,.64,3.32,2,4.65,2,1.3-.67,2.6-2,3.91-2.65-1.31-1.31,0-1.31,.67-1.97Z"/>
              <path class="cls-1" d="M128.17,278.35c-1.13,1.48-.65,3.31-2.62,4.61-.66-5.25,1.97-10.52-.66-15.82l-.66,.68-.66-.68c-7.21,11.89-10.52,25.08-19.06,36.28,0,.63,0,1.33,.67,1.33,4.57-2,5.23-7.25,7.87-11.22,.66-.67,1.98-2.64,3.31-3.95,1.3-1.97,1.97-4.61,5.23-4.61-1.31,3.95-6.55,5.93-5.89,10.56,0,.63,.66,.63,1.31,.63,2.63-1.97,3.27-5.93,5.92-6.58,.64-.66,0,1.98,1.3,2.65,1.97,.63,1.97-2,3.95-2-2.62,1.33,0,3.95-1.98,5.3,1.33,.63,0,3.3,1.98,2.6,2.65-1.97,2.65-5.9,4.6-8.55,0,.66,.64,.66,1.33,.66-1.33,2.63-2.65,5.3-2.65,7.9,0,1.34,1.97,.7,2.65,.7,3.94-6.6,5.26-13.86,7.87-21.11-3.26-1.97-1.97-7.9-5.9-7.24-3.3,.66-5.25,4.6-7.9,7.88Z"/>
              <path class="cls-1" d="M146.57,285.63c0-2.11,.67-3.3,1.34-4.64,.66,0,1.29,0,1.29,.67,.67-.67,1.31-1.98,1.31-2.63-.64-.68-1.93-.68-2.59-.68-2,1.98-4.61,3.31-5.94,6.61,0,.67,.67,1.34,.67,1.34-.67,1.96-3.93,5.25-1.34,7.23,1.34,.66,2.64-1.3,3.3-1.97,.66-1.98,1.96-3.95,1.96-5.92Z"/>
              <path class="cls-1" d="M151.17,278.35c-.34,.59,0,1.33,.68,1.33-.68,0-1.35,0-1.35,.66,.66,2-.64,4.62,1.35,3.95,3.94,0,2.62-4.61,3.28-7.92,0-.63-.66-.63-1.32-.63,1.32-1.97,1.98-3.95,2.65-5.92,0-.67-1.33-1.98-1.99-1.34-3.3,2.65-1.31,6.6-3.3,9.88Z"/>
              <path class="cls-1" d="M182.09,289.57c-.66-2.64,3.95-1.97,5.25-1.31,1.31,.66,3.97,0,4.6,1.97,.66,2.63,3.31,3.3,3.31,5.93,0,.7-1.36,.44-1.98,.7-5.26,1.97-10.54-2.67-11.19-7.28Z"/>
              <path class="cls-1" d="M211.03,290.89c-2.63,5.27-9.21,.67-10.54-3.95-.65-3.3,3.19-1.97,5.28-1.97,3.28,0,5.9,4.61,5.26,5.93Z"/>
              <path class="cls-1" d="M204.42,295.53c-1.88-3.78-4.59-7.92-8.53-7.92-1.3,0-.64,1.97-.64,2.63,1.31,2.63,3.92,4.6,3.92,7.27,0,1.97-2.61,3.95-3.28,6.55,0,1.34,1.95,.7,3.28,1.34,1.31-4.6,6.59-4.6,10.52-4.6,1.98,0,2.65-1.97,2.65-3.94,0-.7-1.31-2.02-1.98-2.02-1.96,.7-5.27,2.02-5.93,.7Z"/>
              <path class="cls-12" d="M242.59,227.63c1.96,1.3,5.01,.98,5.67,2.72,.22,.63-.74,2.32-1.41,1.68-1.32-1.31-3.61-2.23-4.26-4.4Z"/>
            </g>
            <path class="cls-1" d="M211.03,180.83c.55-.36,1.31-.67,1.95-1.35-1.95-1.3-1.31-3.27-.64-4.59,0-1.98,1.96-3.95,1.31-5.94,0-2.64,1.96-3.98,1.96-6.58,0-1.33,2.63-3.32,3.31-5.3,3.28-7.91,5.25-15.82,3.28-24.39,0-1.33,.63-3.3,.63-4.61,0-.66,0-1.98-1.32-2.65h-1.3c-1.29,.67-1.98,2.65-1.29,3.97,.64,6.6-2.67,12.53-3.31,19.1,0,1.33-1.31,3.28-1.96,4.61,0,.67,0,2.64-.68,3.31-1.31,4.62-4.59,7.92-7.21,11.85,0,0,.66,.68,1.31,.68-1.31,.66,0,1.31,0,1.98,0,.63,1.32,.63,1.98,0,1.31,1.3-.66,1.3-1.32,1.97-.66,2.63-3.93,0-5.91,.67,1.31,0,2.61,.64,3.27-.67,.68-1.34,0-2.64-1.29-3.3-1.34-.66-1.98,.66-3.31,.66-1.31,.67-1.31,2.64-2.65,3.31-7.21,2.63-9.19,10.54-14.43,15.15-5.27,4.6-14.49,5.93-17.11,13.19-3.93,11.19-2.63,23.06-5.25,34.92-.66,.67-1.96,1.98-1.3,2.65,0,4.6-1.33,10.54,2.62,14.51,3.29-3.31,1.95-9.25,3.93-13.2,1.33-1.97,1.99,0,3.29,.67l-.67,.67,.67,.64-.67,.66c0,.66,.67,.66,1.31,.66,1.33-.66,1.33-1.96,1.33-2.63-.64-2.64-2.64-5.3-1.33-7.92,1.33-1.3,2.65,3.3,4.63,1.31,2.65-4.61-.64-9.21,3.29-13.16,1.31-.66,.66-3.97,1.31-6.6,2.63,1.31,.63,4.61,1.97,5.94,1.31,.66,1.31,2.61,2.62,3.27,2.63,.67,5.28-1.3,8.55-1.96,1.32,0,1.99-1.97,0-2.64-.66,0-1.29,0-1.29,.67v-1.97c1.97,3.28,4.59,1.3,5.26-1.34,.64-2.64-1.31-5.93-4.62-3.95,0-.67-1.31-1.3-.64-2.63,1.29-1.97,2.61,1.33,3.95,0,1.95-1.97,.64-6.62-1.98-7.27,1.98,0,3.29-1.3,5.23,0,2.65-5.94,0-13.82,5.92-17.79,.66-.67,0,2.63,1.34,3.3,1.31,.67,2.63,0,3.28-1.33,.64-1.97,0-5.27,1.98-6.57Z"/>
          </g>
          <path class="cls-12" d="M144.61,232.24c0-1.34,.66-2.64-.66-3.31-3.94-.66-3.94,3.97-5.23,6.6,0,.64,0,2.64,1.29,2.64,1.97-.66,4.6-3.31,4.6-5.92Z"/>
          <path class="cls-12" d="M170.22,221.69c.6,1.17,0,1.96,0,3.29-3.93-.67-2.59-5.27-1.94-7.91,0,0,1.3,0,1.3,.66-.67,1.31,0,2.65,.64,3.97Z"/>
          <path class="cls-12" d="M180.09,211.14c0-.66,0-1.33,.67-1.33,0-.66-.67-.66-1.3-.66,.63-1.97,0-3.95,.63-5.94,2,2.64,1.34,5.94,4.65,7.27-1.33,2.63-3.31-2.63-4.65,.66Z"/>
          <path class="cls-12" d="M186.67,202.54c.66,.67-1.29,1.31,0,2.01,0,.64-.64,1.3-1.29,.64,0-.64-1.33-1.34-.64-2.65,.64-1.3,1.3-.63,1.94,0Z"/>
          <path class="cls-12" d="M189.32,198.62c2.09-2.06,1.31,3.3,2.62,4.6,0-.67,0-1.3-.64-1.3-.67,1.3-1.98,.63-2.65,.63,1.32-1.3,0-3.3,.67-3.93Z"/>
          <path class="cls-12" d="M188.65,215.09c-1.15,.59-1.98,1.31-2.61,.64-.66-1.31,0-2.63,0-3.93,0-.67,.64-.67,1.3-.67l1.31,1.3c.67,0,1.32,0,1.32-.63-1.32,.63,0,2.61-1.32,3.28Z"/>
          <path class="cls-12" d="M195.25,192.02q0,.67,.64,1.3c0,.67,0,1.33-.64,1.33h-1.33c0-1.33-.64-2.63,.67-3.3l.66,.67Z"/>
          <path class="cls-12" d="M196.56,178.83c.64,.64,1.94-1.3,1.94,0,0,.64,0,2-1.3,2.63-.64,0-1.31,0-1.31-.63,0-.67,0-1.35,.67-2Z"/>
        </g>
        <path class="cls-1" d="M223.05,322.33c1.34,0,2-.67,2-1.35,0-1.31,0-3.93-2-4.59-3.28,0-5.89,.66-5.23,3.94,0,2,2.61,2,5.23,2Z"/>
      </g>
      <g>
        <polygon class="cls-13" points="242.22 364.02 171.89 291.5 101.55 364.02 242.22 364.02"/>
        <path class="cls-12" d="M242.22,364.85H101.55c-.38,0-.66-.19-.79-.48-.15-.35-.1-.72,.15-.94l70.35-72.54c.32-.33,.89-.33,1.21,0l70.37,72.54c.23,.21,.3,.59,.17,.94-.12,.29-.44,.48-.79,.48Zm-138.66-1.7H240.2l-68.3-70.41-68.33,70.41Z"/>
      </g>
      <g>
        <path class="cls-11" d="M191.68,320.5l-1.58,37.08,27.74,.51s11.54-7.29-5.77-12.52c0,0-2.04-14.09-20.38-25.07Z"/>
        <path class="cls-13" d="M197.97,334.08v6.77h3.14s4.69-1.54-3.14-6.77Z"/>
        <path class="cls-13" d="M196.91,348.2v4.17l8.38,.5s6.29-1.02,0-4.67h-8.38Z"/>
      </g>
      <path class="cls-6" d="M154.9,347.35c-.03-.76-.03-1.33-.03-1.72,0-1.37,0-3.43,.03-6.19,0-2.73-.09-15.5-.43-15.5-.7,0-6.98,6.31-6.98,6.68v18.73c0,2.44-1.05,3.62-3.1,3.62-1.39,0-2.3-.46-2.76-1.37-.33-.66-.5-1.93-.5-3.82v-14.34c0-.25-.13-.39-.46-.39-.71,0-6.95,6.39-6.95,6.39v6.19c0,.47-.05,1.19-.07,2.14-.04,.97-.04,1.69-.04,2.16,0,2.09,.16,3.55,.48,4.37,.61,1.69,1.97,2.8,4.06,3.41,1.29,.36,3.17,.56,5.62,.56,5.34,0,8.69-1.03,10.03-3.04,.73-1.1,1.09-3.15,1.09-6.18v-1.7Z"/>
      <path class="cls-6" d="M184.96,351.6h-15.26c-2,0-3.26-.21-3.73-.63-.66-.51-.93-1.77-.93-3.82v-4.4c0-1.65-.03-2.4-.03-2.27,.14-.79,.56-1.17,1.37-1.25,.8-.05,2.78-.13,5.97-.13,3.76,0,6.15,.08,7.26,.17,1.46,.16,2.34,.21,2.59,.21,.56,0,.83-.16,.83-.51,0-.63,.08-1.57,.23-2.78,.09-1.25,.21-2.2,.21-2.8,0-.4-.21-.58-.61-.54h-16.22c-.82,0-1.36-.34-1.49-1.03-.07-.17-.11-.95-.11-2.32v-4.84c0-1.89,.19-3.1,.64-3.57,.44-.5,1.5-.72,3.19-.72h15.97c.46,0,.67-.21,.67-.66,0-.62-5.32-5.52-7.9-5.47-2.6,.08-4.5,.12-5.79,.12-1.37,0-3.43-.04-6.1-.12-2.71-.05-6.83,8.47-6.83,8.47v34.2c0,.63,.3,.9,.94,.9,1.32,0,3.39-.04,6.13-.09,2.75-.08,4.79-.13,6.17-.13,4.81,0,8.36,.19,10.66,.52,.53,.08,.86,.15,1.06,.15,.39,0,.65-.23,.72-.54,.19-1.27,.33-2.25,.4-2.92,.04-.13,.13-.56,.33-1.29,.13-.5,.21-.94,.21-1.26,0-.48-.17-.71-.56-.67Z"/>
    </g>
  </g>
</svg>